<svg width="25" height="24" viewBox="0 0 25 24" fill="none" xmlns="http://www.w3.org/2000/svg">
<g id="Group 2">
<g id="Group 3" filter="url(#filter0_f_2_28)">
<path id="Vector 1" d="M9.53474 11.9263C12.5781 11.7905 13.6354 10.2562 14.3718 5C14.8846 10.6289 15.9931 12.0019 19.5 11.9278C15.9103 12.0037 15.2855 13.532 14.3718 19C13.8609 13.3924 12.5885 11.8019 9.53474 11.9263C9.52319 11.9269 9.51161 11.9274 9.5 11.9278C9.5116 11.9273 9.52318 11.9268 9.53474 11.9263Z" fill="#6FC0BB" fill-opacity="0.67"/>
<path id="Vector 2" d="M5.5 9.88101C8 9.76582 8.05648 9.75549 8.5 6.5C8.80769 9.97313 9.39585 9.92671 11.5 9.88101C9.34615 9.92779 9.04824 10.1261 8.5 13.5C8.07692 10.0745 7.34734 9.79589 5.5 9.88101Z" fill="#6FC0BB" fill-opacity="0.67"/>
<path id="Vector 3" d="M8.5 15.956C10.1 15.7059 10.1 15.7059 10.2846 13.5C10.6333 15.7059 10.6333 15.7059 12.5 15.956C10.6333 16 10.6333 16.4412 10.2846 18.5C9.83333 16.4412 10.2846 16.1471 8.5 15.956Z" fill="#6FC0BB" fill-opacity="0.67"/>
</g>
<path id="Vector 1_2" d="M9.53474 11.9263C12.5781 11.7905 13.6354 10.2562 14.3718 5C14.8846 10.6289 15.9931 12.0019 19.5 11.9278C15.9103 12.0037 15.2855 13.532 14.3718 19C13.8609 13.3924 12.5885 11.8019 9.53474 11.9263C9.52319 11.9269 9.51161 11.9274 9.5 11.9278C9.5116 11.9273 9.52318 11.9268 9.53474 11.9263Z" fill="#3E7673"/>
<path id="Vector 2_2" d="M5.5 9.88101C8 9.76582 8.05648 9.75549 8.5 6.5C8.80769 9.97313 9.39585 9.92671 11.5 9.88101C9.34615 9.92779 9.04824 10.1261 8.5 13.5C8.07692 10.0745 7.34734 9.79589 5.5 9.88101Z" fill="#3E7673"/>
<path id="Vector 3_2" d="M8.5 15.956C10.1 15.7059 10.1 15.7059 10.2846 13.5C10.6333 15.7059 10.6333 15.7059 12.5 15.956C10.6333 16 10.6333 16.4412 10.2846 18.5C9.83333 16.4412 10.2846 16.1471 8.5 15.956Z" fill="#3E7673"/>
</g>
<defs>
<filter id="filter0_f_2_28" x="0.6" y="0.0999999" width="23.8" height="23.8" filterUnits="userSpaceOnUse" color-interpolation-filters="sRGB">
<feFlood flood-opacity="0" result="BackgroundImageFix"/>
<feBlend mode="normal" in="SourceGraphic" in2="BackgroundImageFix" result="shape"/>
<feGaussianBlur stdDeviation="2.45" result="effect1_foregroundBlur_2_28"/>
</filter>
</defs>
</svg>
